<?xml version="1.0" encoding="UTF-8" standalone="no"?>
<!-- Created with Inkscape (http://www.inkscape.org/) -->

<svg
   width="32"
   height="32"
   viewBox="0 0 8.4666665 8.4666666"
   version="1.1"
   id="svg1"
   xmlns="http://www.w3.org/2000/svg"
   xmlns:svg="http://www.w3.org/2000/svg">
  <defs
     id="defs1" />
  <path
     style="fill:none;fill-opacity:1;stroke:#000000;stroke-width:0.53918;stroke-linecap:round;stroke-linejoin:round;stroke-dasharray:none"
     d="M 1.6373518,6.2487828 C 2.2466142,5.5654677 3.5390261,4.1992657 4.1679047,3.5403204 4.6464742,3.0388705 4.6966412,3.0198875 4.9284735,2.7526222 5.1685389,2.4758657 5.5670903,2.058778 5.7846958,1.8101552 5.9831812,1.5833779 6.0847079,1.4636689 6.2562276,1.2910024 6.3447689,1.2018691 6.4693287,1.1221951 6.5420787,1.0672591"
     id="path17" />
  <path
     style="fill:none;fill-opacity:1;stroke:#000000;stroke-width:0.53918;stroke-linecap:round;stroke-linejoin:round;stroke-dasharray:none"
     d="M 2.7046306,7.0014609 C 3.6821077,6.0685921 4.6951121,4.9047518 5.6410067,3.8992951 6.2375203,3.2652196 6.6615899,2.7359404 6.9299326,2.4244239 7.113018,2.2118821 7.3088991,2.044702 7.4673612,1.8567294"
     id="path18" />
  <path
     style="fill:none;fill-opacity:1;stroke:#000000;stroke-width:0.53918;stroke-linecap:round;stroke-linejoin:round;stroke-dasharray:none"
     d="M 2.7061303,7.0045903 C 2.8299928,6.8731671 2.5799488,6.9813707 2.5347091,6.9380634 2.2709771,6.6855964 1.9819562,6.4502371 1.682236,6.2107049 L 1.5584162,6.3557898 C 1.5398842,6.3912707 1.5067927,6.3997675 1.4227876,6.59656 1.3049602,6.83851 1.3363608,6.7295839 1.2627475,6.9558041 1.184008,7.1977777 1.2513594,6.9366213 1.0959715,7.5344516 1.711218,7.3907559 2.1674341,7.2751327 2.7061303,7.0045903 Z"
     id="path19" />
  <path
     style="fill:none;fill-opacity:1;stroke:#000000;stroke-width:0.53918;stroke-linecap:round;stroke-linejoin:round;stroke-dasharray:none"
     d="M 6.0059933,1.6419018 C 6.2962969,2.0047735 6.6968928,2.2100937 6.8399346,2.4224817"
     id="path20" />
  <path
     style="fill:none;fill-opacity:1;stroke:#000000;stroke-width:0.53918;stroke-linecap:round;stroke-linejoin:round;stroke-dasharray:none"
     d="M 7.4302974,1.8744699 C 7.6998456,1.6274149 7.5192908,1.6341763 7.152317,1.2712945 6.8032947,0.92616393 6.6437303,0.93771912 6.4471685,1.134567"
     id="path21" />
</svg>
